<svg xmlns="http://www.w3.org/2000/svg" viewBox="0 0 240.5 35.32"><defs><style>.cls-1{fill:current;}</style></defs><g id="레이어_2" data-name="레이어 2"><g id="레이어_1-2" data-name="레이어 1"><path class="cls-1" d="M5.71,33.74A10.89,10.89,0,0,1,1.5,29.36,13.17,13.17,0,0,1,0,23a13.17,13.17,0,0,1,1.5-6.32,10.89,10.89,0,0,1,4.21-4.38,12,12,0,0,1,6.17-1.58q4.71,0,7,3V1.16H26.3v33.6H18.88v-2.4q-2.29,3-7,3A12,12,0,0,1,5.71,33.74ZM17.38,27.5A6.29,6.29,0,0,0,19,23a6.29,6.29,0,0,0-1.62-4.46A5.66,5.66,0,0,0,13,16.84a5.42,5.42,0,0,0-4.21,1.74A6.4,6.4,0,0,0,7.25,23,6.4,6.4,0,0,0,8.83,27.5,5.42,5.42,0,0,0,13,29.24,5.66,5.66,0,0,0,17.38,27.5Z"/><path class="cls-1" d="M50.26,12.34a11.61,11.61,0,0,1,4.62,4.38A12.13,12.13,0,0,1,56.55,23a12.13,12.13,0,0,1-1.67,6.32,11.61,11.61,0,0,1-4.62,4.38,14.87,14.87,0,0,1-13.34,0,11.61,11.61,0,0,1-4.62-4.38A12,12,0,0,1,30.63,23a12,12,0,0,1,1.67-6.32,11.61,11.61,0,0,1,4.62-4.38,14.87,14.87,0,0,1,13.34,0ZM39.4,18.58A6.32,6.32,0,0,0,37.8,23a6.32,6.32,0,0,0,1.6,4.46,5.91,5.91,0,0,0,8.38,0A6.32,6.32,0,0,0,49.38,23a6.32,6.32,0,0,0-1.6-4.46,5.91,5.91,0,0,0-8.38,0Z"/><path class="cls-1" d="M75.3,17.44H70.47V34.76H63.05V17.44H58.22V11.32h4.83v-7h7.42v7H75.3Z"/><path class="cls-1" d="M96.6,12.34a11.61,11.61,0,0,1,4.62,4.38A12.13,12.13,0,0,1,102.89,23a12.13,12.13,0,0,1-1.67,6.32,11.61,11.61,0,0,1-4.62,4.38,14.87,14.87,0,0,1-13.34,0,11.61,11.61,0,0,1-4.62-4.38A12.13,12.13,0,0,1,77,23a12.13,12.13,0,0,1,1.67-6.32,11.61,11.61,0,0,1,4.62-4.38,14.87,14.87,0,0,1,13.34,0ZM85.74,18.58A6.32,6.32,0,0,0,84.14,23a6.32,6.32,0,0,0,1.6,4.46,5.91,5.91,0,0,0,8.38,0A6.32,6.32,0,0,0,95.72,23a6.32,6.32,0,0,0-1.6-4.46,5.91,5.91,0,0,0-8.38,0Z"/><path class="cls-1" d="M107.23,11.32h7.41v2.4q2.3-3,6.84-3a10.43,10.43,0,0,1,3.21.4l.08,6.68A8.38,8.38,0,0,0,121,17a6.71,6.71,0,0,0-4.65,1.52,5.37,5.37,0,0,0-1.69,4.2v12h-7.41Z"/><path class="cls-1" d="M135.27,1.24a4.16,4.16,0,0,1,1.29,3.12,4.16,4.16,0,0,1-1.29,3.12,4.88,4.88,0,0,1-6.5,0,4.16,4.16,0,0,1-1.29-3.12,4.16,4.16,0,0,1,1.29-3.12,4.88,4.88,0,0,1,6.5,0Zm.46,33.6h-7.42V11.32h7.42Z"/><path class="cls-1" d="M149.4,33.88a8,8,0,0,1-3.21-2.8v3.4H141.9v-33h4.29V15a8,8,0,0,1,3.21-2.8A11.18,11.18,0,0,1,154.65,11a11.77,11.77,0,0,1,6,1.56,11.26,11.26,0,0,1,4.23,4.32A12.31,12.31,0,0,1,166.44,23a12.31,12.31,0,0,1-1.54,6.12,11.26,11.26,0,0,1-4.23,4.32,11.77,11.77,0,0,1-6,1.56A11.18,11.18,0,0,1,149.4,33.88Zm9-3.56a7.33,7.33,0,0,0,2.81-3,9.09,9.09,0,0,0,1-4.28,9.09,9.09,0,0,0-1-4.28,7.33,7.33,0,0,0-2.81-3,8,8,0,0,0-4.15-1.08,8.18,8.18,0,0,0-4.23,1.1,7.72,7.72,0,0,0-2.89,3,8.67,8.67,0,0,0-1,4.26,8.67,8.67,0,0,0,1,4.26,7.72,7.72,0,0,0,2.89,3,8.18,8.18,0,0,0,4.23,1.1A8,8,0,0,0,158.42,30.32Z"/><path class="cls-1" d="M189.15,12.6a11.19,11.19,0,0,1,4.36,4.3A12.19,12.19,0,0,1,195.07,23a12.19,12.19,0,0,1-1.56,6.14,11.19,11.19,0,0,1-4.36,4.3,13.34,13.34,0,0,1-12.52,0,11.3,11.3,0,0,1-4.35-4.3A12,12,0,0,1,170.69,23a12,12,0,0,1,1.59-6.14,11.3,11.3,0,0,1,4.35-4.3,13.34,13.34,0,0,1,12.52,0Zm-10.39,3.18a7.66,7.66,0,0,0-2.84,3,8.88,8.88,0,0,0-1,4.26,8.88,8.88,0,0,0,1,4.26,7.66,7.66,0,0,0,2.84,3,8.32,8.32,0,0,0,8.27,0,7.43,7.43,0,0,0,2.83-3,9,9,0,0,0,1-4.26,9,9,0,0,0-1-4.26,7.43,7.43,0,0,0-2.83-3,8.32,8.32,0,0,0-8.27,0Z"/><path class="cls-1" d="M196.53,11.6h5.25L208.62,20l6.91-8.44h5l-9.25,11.2L221,34.48h-5.25l-7.29-8.84-7.29,8.84h-5l9.62-11.6Z"/><path class="cls-1" d="M222.3,10.69h7.93v1.74h-3v7.05h-2v-7h-3Zm13.62,5.15,3-5.15h1.61v8.79h-1.81V14.3l-2.19,3.81h-1.19l-2.22-3.81v5.18h-1.78V10.69h1.61Z"/></g></g></svg>